<?xml version="1.0" encoding="utf-8"?>
<svg version="1.0" xmlns="http://www.w3.org/2000/svg" width="300px" height="380px" viewBox="0 0 300 380" preserveAspectRatio="xMidYMid meet">
 <g fill="#808080">
  <path d="M86.1 366 c-11 -5 -19.9 -13.2 -29 -26.8 -6 -8.9 -8.1 -13.9 -8.1 -19.7 0 -6 3.7 -14.6 7.3 -17 l2.5 -1.6 -3 -5.4 c-1.6 -3 -2.8 -6.5 -2.6 -7.7 0.3 -2 1.1 -2.4 6.8 -3.2 3.6 -0.5 6.7 -1 6.9 -1.2 0.2 -0.2 -1 -2.5 -2.8 -5.2 -3.7 -5.8 -6.8 -14.4 -7.7 -21.5 -0.5 -3.5 -1.7 -6.4 -3.5 -8.7 -3.8 -4.7 -6.9 -14.1 -6.9 -20.9 0 -6.5 2.5 -12.5 7.5 -18.7 4.4 -5.3 8 -6.8 13.6 -5.7 l4.4 0.9 0.1 9.9 c0.1 12.8 -0.2 11.5 4.4 17.4 3.3 4.2 5.7 5.8 15.3 10.5 12.5 6 18 7.3 35.4 8.4 l11.8 0.7 -1.9 -3.8 c-1.3 -2.7 -1.6 -4.1 -0.8 -4.9 0.7 -0.7 1.5 -0.1 2.6 2.1 2.3 4.3 8.2 7.1 15.1 7.1 8.7 0 24.6 2 28.3 3.6 4.5 1.8 6.1 1.8 6.9 -0.3 4.6 -13.6 11.6 -28 16.4 -34.2 2.1 -2.6 2.4 -6.6 0.9 -10.5 -1.5 -4.1 1.4 -4.3 3.7 -0.3 0.8 1.6 1.3 1 2.7 -3.8 1.4 -4.4 1.7 -7.2 1.1 -13.1 -0.8 -8.7 -0.3 -9.2 7.6 -7.5 6.3 1.4 5.8 1.9 10 -10.9 3.7 -11.2 4.1 -18.7 1.5 -30.2 -2.1 -9.4 -8.4 -19.5 -17.2 -27.9 -6.9 -6.5 -9.2 -7.8 -21.2 -12 -16.1 -5.7 -31.5 -7.2 -44.7 -4.4 -3.9 0.8 -10.4 2.2 -14.5 3.1 -4.1 0.8 -10 2.4 -13 3.5 -5.1 1.9 -19.6 10 -28.3 15.7 -6.5 4.3 -23 23.2 -26.9 30.7 -1 1.9 -1 1.9 1.3 -0.1 6 -5.3 6 -4.6 -0.3 4.7 -2.1 3 -4.4 8.2 -5.2 11.5 -1.7 6.8 -2.5 21.5 -1.3 25.9 1 3.9 -1.4 7.8 -3.5 5.7 -1.7 -1.7 -1.7 -19.5 0.1 -29.7 1.8 -10.2 7.3 -22.2 15.2 -33 4.2 -5.7 15 -16.6 17.4 -17.5 1.7 -0.7 1.4 -1 -2.5 -2.8 -2.5 -1.1 -6.3 -2.5 -8.5 -3.1 -2.2 -0.6 -5 -1.3 -6.3 -1.6 -1.7 -0.5 -3.1 0.3 -6.2 3.4 -4.5 4.6 -8.9 5.4 -12.2 2.4 -1.2 -1.1 -2.2 -1.3 -2.6 -0.7 -1.4 2.1 -9.4 5.4 -13 5.4 -8.5 -0.1 -18.2 -11.6 -18.2 -21.8 0 -4.2 0.5 -5.8 2.4 -7.7 2.6 -2.6 14 -6.5 18.9 -6.5 2.9 0 10.6 -2.9 10.7 -4 0 -0.3 -1.8 -2.9 -4 -5.7 -4.7 -6.3 -9 -14.5 -9 -17.3 0 -2.9 6.5 -9.7 10.7 -11.1 4.7 -1.5 15.2 -0.6 18.7 1.6 3 2 5.4 5.9 7.2 11.7 1.8 5.7 6.3 12.8 8.2 12.8 0.9 0.1 3.4 0.7 5.5 1.4 2 0.8 3.7 1.2 3.7 1.1 0 -1.8 -9.1 -14.2 -17.1 -23.4 -6.1 -7 -11.2 -14 -13 -17.7 -2.8 -6 -2.9 -6.2 -1.3 -10 2.2 -5.3 5 -8.1 11 -11 5.9 -2.8 8.2 -3 12.7 -1 4.1 1.8 15.9 13.9 18.4 19 l2 3.9 2.1 -7.9 c1.4 -4.9 3 -8.6 4.3 -9.6 2.5 -2.1 11.1 -2.4 17.1 -0.6 5.9 1.7 7.2 4.4 6.5 13.1 l-0.5 7.2 2.4 -4.8 c3 -5.7 5.2 -6.5 13.1 -4.2 7.8 2.3 14.3 8.6 14.3 13.9 0 5 -1.1 6.9 -9.6 15.8 -4 4.2 -8.5 10.1 -10 13 -2.5 4.9 -9.6 24 -9.1 24.5 0.1 0.1 4.5 -0.5 9.7 -1.3 11.3 -1.7 18.7 -1.8 29.6 -0.4 7.4 0.9 19.2 4.3 24 6.8 1 0.5 3.9 1.8 6.4 2.8 6.2 2.6 16.7 13.3 22 22.4 5.4 9.3 9 21 9 29.7 0 8.6 -2.6 20.8 -5.6 26.3 l-2.5 4.4 3.6 3.1 c2 1.6 4.3 4.4 5.2 6 0.9 1.7 2.4 4.6 3.5 6.5 2.1 4.1 2.4 13.3 0.5 17 -1.6 3.1 -6.2 19.2 -8 27.8 -1.2 5.6 -1.5 6.2 -2.7 4.7 -1.1 -1.3 -1.1 -2.9 -0.1 -9.3 0.8 -4.2 1.4 -8.7 1.5 -9.8 0 -1.2 0.8 -3 1.7 -4 4.1 -4.8 6.2 -19.7 3.5 -25.4 -2.1 -4.4 -3.8 -7.3 -5.6 -9.6 -1.7 -2 -15.9 -8.8 -16.7 -8 -0.3 0.3 0.1 3.4 1 6.8 1.8 7.5 4 21.8 3.4 22.4 -0.2 0.2 -1.2 -1.2 -2.3 -3.1 -1 -1.9 -2.1 -3.5 -2.5 -3.5 -0.9 0 -2.9 4.8 -2.9 6.8 0.1 2.3 6.6 11.2 8.8 11.8 4.1 1.3 4.6 2 4.4 6.5 -0.4 6.3 -1.9 11.3 -4.1 14.1 -2.3 2.7 -4.1 1.6 -2.2 -1.3 1.8 -3 0.8 -3.4 -3.9 -1.5 -2.2 0.9 -4.3 1.6 -4.7 1.6 -0.3 0 -0.3 -3.3 0 -7.3 0.7 -9.5 0.2 -10.3 -5.2 -7.9 -5.1 2.3 -6.3 4.4 -13 23.6 -1 2.8 -2.3 5.2 -3.1 5.4 -0.7 0.3 -3.5 -0.3 -6.4 -1.1 -9.2 -2.8 -17.4 -3.8 -38.9 -4.7 -29.5 -1.3 -41.7 -3 -49.9 -7.1 l-3.7 -1.9 0.6 3.7 0.6 3.6 -5.4 -0.6 c-3 -0.4 -6.5 -1 -7.8 -1.4 -2.4 -0.6 -2.4 -0.6 -1.6 5.2 0.4 3.2 0.9 6.5 1.3 7.3 0.3 1 0 1.3 -0.9 1 -2.3 -0.7 -4.9 -6.9 -4.9 -11.6 0 -2.9 -0.4 -4.1 -1.1 -3.6 -1.4 0.8 -0.5 8.3 1.5 12.2 0.7 1.5 1.7 4.2 2.1 6 0.7 3.2 0.6 3.3 -1.4 2 -2.9 -1.8 -4.8 -6.2 -6 -13.7 l-1 -6.4 4.4 -5 c5.6 -6.5 5.9 -7.9 2.4 -11.3 -2.9 -2.8 -2.9 -2.8 -4.2 1.6 -0.2 0.8 -1 -0.5 -1.7 -3 -0.8 -3.1 -1 -7.9 -0.5 -15.7 l0.7 -11.3 -2.9 0 c-5.5 0.1 -9.7 4 -13.5 12.6 -1.6 3.8 -1.9 5.9 -1.5 10.5 0.9 8.1 4.3 16.5 7.8 19.1 2.1 1.6 2.6 2.5 1.8 3.4 -1.3 1.6 3.1 16.5 7.3 24.6 4.6 8.9 3.3 11.4 -6.4 11.7 -2.1 0.1 -3.8 0.3 -3.8 0.6 0 0.3 1.6 3.5 3.5 7.2 2.5 4.8 3.2 6.9 2.3 7.2 -0.7 0.2 -2.7 1.9 -4.4 3.7 -7.3 7.7 -4.6 22.2 7.1 37.4 6.2 8 18.7 19.2 19.9 17.9 0.2 -0.2 -0.7 -2.6 -2 -5.3 -3.5 -7.3 -9.1 -23.6 -9.9 -29 -0.7 -4.5 -2.6 -7.6 -4.6 -7.6 -0.5 0 -0.9 -0.7 -0.9 -1.5 0 -2 0.3 -2 12.6 2.1 16 5.2 31.9 8.2 49.9 9.6 13.9 1 18 0.9 31.4 -0.6 27.1 -3 35.5 -5.3 55.6 -15.3 3.9 -2 7.7 -4.1 8.5 -4.8 0.8 -0.8 4.4 -2.8 7.9 -4.5 8.1 -4.1 11.5 -3.6 18.1 2.6 4.6 4.3 16.7 21.4 21.9 30.9 3.1 5.8 -0.5 -18.3 -4.6 -30.1 -2 -6 -7.1 -13.2 -10.4 -14.9 -1.6 -0.9 -5.5 -1.5 -9.2 -1.5 -3.5 0 -6.6 -0.3 -7 -0.6 -0.3 -0.3 1.1 -3.5 3 -7.1 3.8 -7 3.6 -8.3 -1.6 -8.3 -3.6 0 -10.3 -2.2 -10.8 -3.6 -0.2 -0.7 1.6 -3.4 4.1 -6 5.5 -5.7 5.9 -8.2 1.6 -9.1 -3.3 -0.6 -3.6 -2.6 -0.5 -3.1 2.1 -0.5 9.5 2.7 9.5 4 0 1.2 -5.4 9.1 -7.4 10.7 -2.5 2.1 -1.9 2.8 2.7 3.5 7.1 1.1 10.7 2.6 10.7 4.5 0 0.9 -1.3 3.8 -3 6.4 l-3 4.7 4.6 0 c12 0 19.3 10.5 24.5 35 2.6 12.8 2.4 26.1 -0.5 26 -0.6 -0.1 -2.6 -2.4 -4.4 -5.3 -1.8 -2.9 -6.4 -10.1 -10.2 -16.2 -3.8 -6 -8.1 -12.7 -9.7 -14.9 -2.6 -3.6 -7.4 -6.6 -10.6 -6.6 -0.8 0 -5.2 2.3 -9.8 5.1 -19.4 11.9 -36.5 17.6 -62.9 21.1 -12.3 1.6 -39.8 1.5 -52.5 -0.1 -9.6 -1.2 -13.4 -1.9 -31.2 -5.9 -9.8 -2.2 -10.4 -1.6 -4.9 5.8 3.8 5.2 14.4 14.5 13.3 11.7 -0.4 -1 -1.4 -4.2 -2.3 -7.2 -0.9 -3.2 -2.1 -5.5 -2.9 -5.5 -0.8 0 -1.7 -0.5 -2.1 -1.2 -0.8 -1.3 -0.2 -1.2 20.6 3.3 12.7 2.7 17.1 3.1 35 3.6 23 0.6 47 -1.3 62.5 -4.9 7.6 -1.7 25 -7.4 33.4 -10.9 2.9 -1.2 4.2 -0.2 1.9 1.5 -1.6 1.1 -1.5 1.7 0.4 8.7 1.1 4.1 2.2 8.1 2.5 8.9 1.2 4 6.3 -13.9 6.3 -22.3 0 -2.7 0.4 -3.7 1.3 -3.5 1.8 0.7 2.1 4.5 0.7 12.3 -1.3 7.4 -7.8 22.7 -9.5 22.2 -1.2 -0.4 -2.2 -4.5 -3 -12.9 -0.3 -3.6 -1.2 -7.4 -1.9 -8.4 -1.2 -1.6 -1.8 -1.6 -10.2 1.1 -18.1 5.6 -25 7.2 -42.9 9.5 -14 1.9 -39.3 2.4 -53.1 1.1 -11.8 -1.2 -31.3 -4.4 -34.9 -5.7 -1.9 -0.8 -1.9 1.3 -0.1 4.7 0.7 1.4 1.6 4.7 2 7.4 l0.8 4.7 -4.3 -2.3 c-2.3 -1.3 -6.1 -4.1 -8.5 -6.2 -4.3 -3.7 -4.3 -3.8 -3.4 -1 0.4 1.5 1.3 4.2 2 5.8 3 7.5 7.7 21.5 7.1 21.5 -0.3 0 -2.6 -0.9 -5 -2z m1.5 -118.6 c-0.4 -1.4 -1.9 -3.6 -3.3 -4.8 l-2.6 -2.2 -3.3 3.5 -3.3 3.6 5.7 1.1 c3.1 0.6 6.1 1.2 6.6 1.3 0.4 0 0.5 -1.1 0.2 -2.5z m134.2 -11.1 c0.3 -3.7 0 -4.1 -2.8 -5.3 -1.7 -0.7 -4.5 -3 -6.3 -5.1 -3.6 -4.2 -4.6 -4 -7.2 1 -1.6 3.3 -1.6 3.4 0.1 2.7 5.5 -2.1 7.3 -1.9 8.4 1 0.7 1.6 0.8 4.9 0.5 7.6 l-0.7 4.8 3.9 -1.4 c3.5 -1.2 3.8 -1.6 4.1 -5.3z m-179.3 -120 c-0.4 -2.1 -1.5 -5.5 -2.5 -7.5 -1 -2.1 -1.5 -3.8 -1.2 -3.8 1 0 4.9 6 6.2 9.4 l1 2.8 2.8 -1.8 c5.4 -3.6 8.6 -4.7 16.1 -5.7 7.4 -1 8 -0.9 19.2 2.8 l11.7 3.8 6.3 -3.9 c3.5 -2.1 6.6 -4.1 6.9 -4.4 1 -1.1 7.6 -3.8 16.3 -6.6 7.5 -2.4 8.8 -3.2 9.3 -5.4 3.6 -17 9.2 -27.8 19.4 -37.9 7.9 -7.8 8 -7.9 8 -13 0 -5.5 -1 -7.1 -6.2 -10.4 -2.8 -1.8 -11.3 -2.4 -12.2 -0.9 -0.8 1.3 5.3 6.8 9.9 9.1 l4 2 -3.6 0.1 c-2.6 0 -4.9 -1 -8.3 -3.6 -2.5 -1.9 -5 -3.3 -5.4 -3 -2.9 1.7 -14.7 36.3 -17.6 51.2 -1.1 5.9 -1.4 6.5 -2.1 4.2 -1.1 -4.2 -0.1 -10.3 3.4 -21.3 8.7 -27.2 12 -45.7 8.6 -48.5 -1.9 -1.5 -12.1 -2.6 -15.9 -1.6 -2 0.5 -2.9 1.7 -4.1 5.8 -1.9 6.6 -1.9 19 0 25.4 1.3 4.3 4.5 22.9 4.5 25.8 -0.1 2.5 -3.9 -7.7 -5.4 -14.2 -4.7 -20.6 -11.5 -35.2 -20.2 -43.1 -6.9 -6.3 -10.7 -6.7 -18.4 -2 -3.9 2.4 -5.2 3.9 -6.2 7 -1 3.4 -0.9 4.5 0.6 7.2 3.4 6.5 6.2 10.5 11.7 16.8 6.9 7.9 17.9 22.7 17.9 24.1 0 0.6 1.8 5.1 4 10 3 6.9 4 10.5 4.2 15.4 0.3 6.2 -1.4 9.6 -2 4.2 -0.2 -1.8 -1.8 -3.9 -4.4 -6 -2.2 -1.8 -4.7 -4.1 -5.7 -5.2 -12.7 -14.5 -18 -22.7 -20.6 -31.4 -0.9 -2.8 -2.7 -6.5 -4.1 -8.2 -2.4 -2.8 -3.1 -3 -9 -3 -13.5 0 -17.8 6.6 -11.5 17.5 1.6 2.8 5.4 8.1 8.3 11.9 5 6.5 5.7 7 10.8 8.2 5.8 1.3 22.1 8.9 27.1 12.6 1.6 1.2 2.9 3 2.9 4 0 1 -0.2 1.8 -0.4 1.8 -0.3 0 -4.2 -2.3 -8.7 -5.1 -4.5 -2.8 -12.3 -6.5 -17.3 -8.3 -8.3 -2.8 -10.2 -3.1 -21.6 -3.1 -13.4 0 -21.1 1.9 -23 5.6 -1.7 3.1 -1.1 8.7 1.7 14.5 3 6.3 6.9 9.4 12.2 9.4 3.3 0 3.3 0 2.6 -3.7z m19.5 -1.3 c1.4 -1.1 2.1 -2 1.7 -2 -1.1 0 -6.7 2.9 -6.7 3.5 0 1.1 2.7 0.3 5 -1.5z m37 -24.4 c0 -2 -3.8 -6.5 -7 -8.1 -5.4 -2.8 -5.4 -1.5 0 4 5.6 5.7 7 6.5 7 4.1z"/>
  <path d="M157.2 322.8 c-0.7 -0.7 -1.2 -2.8 -1.2 -4.8 0 -4.1 1.4 -6 4.7 -6 2.6 0 4.3 2.7 4.3 6.7 0 3.4 -1.6 5.3 -4.5 5.3 -1.2 0 -2.6 -0.5 -3.3 -1.2z"/>
  <path d="M130 316.2 c-4.3 -2.1 -7 -7.2 -6.9 -13.2 0.1 -5.6 1.7 -10.3 1.8 -5.3 0.2 6 7 8.4 9.6 3.3 2.5 -4.8 1.3 -11 -2.1 -11 -0.8 0 -1.2 -0.4 -0.9 -1 0.3 -0.5 2.9 -1 5.6 -1 4.2 0 5.5 0.5 7.9 2.8 4.6 4.7 6.3 13.7 3.5 19.1 -3.8 7.5 -11.2 10 -18.5 6.3z"/>
  <path d="M176.5 313.6 c-5.4 -2.4 -7.8 -6 -8.3 -12.4 -0.3 -3.7 0.1 -6.9 1.1 -9.2 l1.5 -3.5 0.1 3.5 c0.2 7.3 6.3 10.7 9.7 5.5 2.1 -3.2 1.2 -8.3 -1.9 -10.7 -2.2 -1.7 -2.2 -1.8 2.4 -1.8 6.3 0 9.4 2.6 11.5 9.6 2.5 8.8 0.2 15.4 -6.6 18.9 -3.5 1.8 -5.6 1.8 -9.5 0.1z"/>
  <path d="M264.5 262 c-0.3 -0.5 -2.4 -1.5 -4.5 -2.1 -2.2 -0.7 -4 -1.6 -4 -2 0 -0.4 1.4 -1.9 3.1 -3.3 3.7 -3.2 9.7 -3.5 12.2 -0.8 2.3 2.5 2.2 6.9 -0.2 8.2 -2.5 1.3 -5.8 1.3 -6.6 0z m6.2 -3.6 c0.9 -2.4 -1.1 -3.7 -4.7 -2.9 l-3.2 0.7 2.8 1.8 c3.6 2.3 4.3 2.4 5.1 0.4z"/>
  <path d="M257 239.1 c-0.8 -0.6 -2.5 -0.8 -3.7 -0.4 -3.1 0.7 -3 -1.7 0.3 -5.6 1.7 -2.1 3.5 -3.1 5.3 -3.1 3.5 0 7.4 4 6.9 7.2 -0.2 1.8 -1 2.4 -3.8 2.6 -1.9 0.1 -4.2 -0.2 -5 -0.7z m6 -3.5 c0 -1.9 -1.7 -2.9 -3.7 -2.2 -1.2 0.5 -1.3 0.9 -0.3 2.1 1.6 1.9 4 1.9 4 0.1z"/>
  <path d="M134.7 235.3 c-1.3 -1.2 -0.7 -4.8 1.2 -7.2 2.3 -3.1 4.8 -2 2.6 1.2 -0.8 1.2 -1.5 3.2 -1.5 4.4 0 2.3 -1 3 -2.3 1.6z"/>
  <path d="M77.4 205.6 c-2.6 -6.6 15.6 -32.8 24.4 -35.2 4.3 -1.2 3.6 0.6 -2.1 5.7 -7.7 6.8 -13.8 15 -18.1 24 -2.7 5.9 -3.6 7 -4.2 5.5z"/>
  <path d="M174.6 201.2 c-0.3 -0.6 1.3 -2 3.7 -3.1 7.4 -3.6 22.7 -2.4 22.7 1.7 0 1 -0.6 1.2 -2.2 0.7 -5.9 -1.9 -16.2 -1.5 -21.9 0.9 -1 0.4 -2 0.3 -2.3 -0.2z"/>
  <path d="M107.6 168.3 c-1.4 -1.5 -0.4 -3.3 3.6 -6.2 6.3 -4.7 7.9 -3.8 3.2 1.8 -2.9 3.5 -5.8 5.4 -6.8 4.4z"/>
  <path d="M130.7 152.3 c-1.4 -1.3 -0.6 -2.3 3.6 -4.7 11.5 -6.7 36.4 -13.3 53.7 -14.2 18.1 -1 30.9 2.4 38 10.1 l2.5 2.7 -4.4 -2.3 c-2.4 -1.3 -5.5 -3 -6.9 -3.8 -3.9 -2.1 -20.8 -4.1 -30.2 -3.5 -14.4 0.9 -41.9 8.4 -51.6 14 -2.2 1.3 -4.4 2.1 -4.7 1.7z"/>
  <path d="M83.2 136.5 c2.5 -3.4 7.4 -7.5 15.5 -13.1 6.5 -4.5 12.9 -8.5 14.3 -8.9 1.4 -0.4 4.4 -1.7 6.7 -2.7 4.1 -1.9 7.3 -1.9 7.3 0 0 1.1 -6.4 4.2 -12 5.8 -1.4 0.4 -2.7 1 -3 1.4 -0.3 0.4 -3 2 -5.9 3.5 -5.5 2.7 -12.3 7.5 -21.6 15 l-5 4 3.7 -5z"/>
  <path d="M130.4 108.9 c-0.9 -1.6 1.5 -2.9 5.4 -2.9 3.8 0 4.2 1.2 0.7 2.8 -3.2 1.5 -5.2 1.5 -6.1 0.1z"/>
  <path d="M147.7 104.4 c-2 -2 -0.5 -3.4 3.8 -3.4 4 0 5.8 1.1 3.8 2.3 -1.7 1 -6.9 1.7 -7.6 1.1z"/>
 </g>
</svg>
