<?xml version="1.0" encoding="utf-8"?>
<svg version="1.0" xmlns="http://www.w3.org/2000/svg" width="290px" height="387px" viewBox="0 0 290 387" preserveAspectRatio="xMidYMid meet">
 <g fill="#000000">
  <path d="M78.1 372 c-6.7 -3.1 -16.4 -10.4 -20.8 -15.7 -5.4 -6.6 -12 -16.5 -14.3 -21.6 -3.9 -8.6 -2 -24.6 3.6 -30.8 1.4 -1.5 1.4 -2 -0.1 -4.9 -1 -2 -1.5 -4.9 -1.3 -8.3 l0.3 -5.2 5.2 -0.8 c5.1 -0.8 5.2 -0.9 3.8 -3.1 -2.2 -3.3 -5.4 -13.1 -6.1 -18.9 -0.5 -3.5 -1.7 -6.4 -3.5 -8.7 -4.5 -5.6 -6.9 -14 -6.9 -23.9 0 -9.6 1.6 -14.3 7.2 -21.3 l3.1 -4 0.2 -14.6 c0.3 -16.4 1.9 -26 5.8 -34.2 5.8 -12 10.7 -19.3 19.2 -28.1 l5.6 -5.8 -2.8 -0.6 c-1.5 -0.4 -4.1 -1.1 -5.6 -1.7 -2.7 -1 -3.2 -0.8 -6.2 2.5 -3.3 3.6 -3.5 3.7 -11.2 3.7 -5.3 0.1 -8.4 0.5 -9.7 1.5 -1.3 1 -4.3 1.5 -9 1.5 -6.1 -0.1 -7.7 -0.5 -11.1 -2.8 -2.2 -1.5 -5.5 -5.2 -7.2 -8.2 -3 -5 -3.3 -6.1 -3.3 -13.8 0 -7.4 0.3 -8.5 2.4 -10.7 2.7 -2.7 14 -6.5 19.5 -6.5 2 0 4.4 -0.7 5.4 -1.4 1.7 -1.3 1.6 -1.5 -0.6 -4.2 -4.5 -5.4 -7.7 -13 -7.7 -18.3 0 -4.2 0.5 -5.6 3.2 -8.7 4.3 -4.8 8.3 -6.4 16.3 -6.4 3.6 0 6.5 -0.3 6.5 -0.7 0 -0.5 -1.2 -3 -2.5 -5.8 -2.9 -5.8 -3.1 -9.8 -0.9 -15.1 2.2 -5.3 5 -8.1 11 -11 5.5 -2.6 13.2 -3.2 18.1 -1.3 1.5 0.5 6 4.2 10 8.1 l7.1 7.1 1.2 -4.1 c1.6 -6 3.9 -7.2 14.1 -7.2 12.8 0 18.9 2.8 18.9 8.6 0 2.2 0.4 2.4 4.8 2.4 8 0 15.1 2.7 19.9 7.5 4.2 4.1 4.3 4.4 4.3 10.9 0 3.7 -0.5 7.7 -1.1 8.9 -0.7 1.2 -4.5 5.7 -8.5 9.9 -7.5 7.9 -10.8 13.2 -14.7 24.1 l-2.3 6.3 5 -0.7 c7.6 -1.1 23.1 -1 32.2 0.1 7.4 0.9 19.2 4.3 24 6.8 1 0.5 3.9 1.8 6.4 2.8 6.2 2.6 16.7 13.3 22 22.4 6.2 10.5 9 20.8 9 32.7 0 9.6 -2.2 22.8 -4.5 27.2 -1.1 2.2 -1 2.7 1.1 4.3 1.2 1 2.9 3.1 3.7 4.6 0.8 1.5 2.4 4.5 3.6 6.7 2.6 4.9 3 18.8 0.6 23.8 -1.4 3.2 -5.6 17.3 -7 23.5 -0.6 3.1 -0.5 3.2 2.4 3.2 1.7 0 4.6 0.8 6.6 1.7 3.2 1.5 3.5 2.1 3.5 5.7 0 2.5 -0.8 5.1 -2 6.6 -2.5 3.2 -2.5 5 -0.1 5 1 0 3.2 0.5 5 1.1 2.8 1 3.1 1.5 3.1 5.6 0 2.4 -0.5 5.3 -1 6.4 -0.9 1.6 -0.7 1.9 1.5 1.9 6.8 0 14.1 7.4 17.9 18.1 5.5 15.4 8.1 35.3 6 45.8 -0.6 2.9 -0.9 3.1 -4.8 3.1 -3.8 -0.1 -4.3 -0.4 -7.4 -5.3 -1.8 -2.9 -5.7 -9 -8.6 -13.6 l-5.4 -8.4 -1.1 3.9 c-0.6 2.1 -1.1 4.8 -1.1 5.8 0 1.1 -1.7 5.5 -3.8 9.8 l-3.7 7.9 -3.9 -0.3 c-4.5 -0.3 -4.9 -1.1 -6.1 -12.8 -0.9 -9 -1.2 -9.4 -6.6 -7.5 -19.9 7.1 -39.7 10.3 -69.4 11.2 -22 0.6 -47.3 -1.2 -57.7 -4.3 -1.6 -0.5 -1.7 0.1 -1.1 7 l0.6 7.6 -3.2 0 c-1.8 0 -4.1 -0.5 -5.3 -1.1 -1.1 -0.6 -2.1 -0.9 -2.4 -0.7 -0.2 0.2 0.8 3.5 2.1 7.4 1.4 3.8 2.5 8.1 2.5 9.7 0 2.5 -0.3 2.7 -3.7 2.7 -2.1 0 -5.8 -0.9 -8.2 -2z m-9.6 -27 c-1.3 -3.8 -2.7 -9 -3.1 -11.5 -0.6 -4.4 -2.5 -7.5 -4.5 -7.5 -0.5 0 -0.9 -2 -0.9 -4.5 l0 -4.5 3.9 0 c2.1 0 8.8 1.6 14.7 3.6 6 1.9 16.1 4.6 22.4 5.9 20.4 4.3 51.6 5.7 48.1 2.2 -1.5 -1.5 -1.4 -14 0.1 -15.5 0.7 -0.7 3.5 -1.2 6.2 -1.2 l5.1 0 -0.3 -7.7 c-0.2 -4.3 0.1 -9.5 0.8 -11.5 1 -3.4 1.4 -3.8 4.5 -3.8 2.8 0 3.5 -0.4 3.5 -2 0 -1.8 0.7 -2 7.4 -2 9.1 0 11.9 1.8 14.1 9.2 3.2 11 1.2 20.1 -5.5 24.6 -3 2 -4.5 2.3 -9.7 2 -4.4 -0.3 -7.1 -1 -9.2 -2.6 l-2.9 -2.1 -0.4 6.4 -0.3 6.4 3 -0.6 c14 -2.3 23.7 -4.7 29.8 -7.4 10 -4.4 20.9 -9.9 22.7 -11.4 0.8 -0.8 4.3 -2.7 7.7 -4.4 6.9 -3.4 13.2 -4 18.6 -1.7 3.8 1.6 10.9 9 15.7 16.3 1.8 2.9 3.4 5.2 3.6 5 0.1 -0.1 -0.2 -2.3 -0.6 -4.9 -1.5 -7.5 -7.8 -18.6 -11.8 -20.4 -0.9 -0.4 -5.1 -1 -9.2 -1.3 l-7.5 -0.6 -0.3 -3.2 c-0.2 -2.1 0.6 -4.8 2.3 -7.6 l2.5 -4.4 -4.2 -0.6 c-2.4 -0.2 -5.5 -1 -7 -1.6 -2.4 -0.9 -2.8 -1.6 -2.8 -5.1 0 -3.4 0.6 -4.7 3.7 -7.8 3.3 -3.3 3.5 -3.7 1.8 -4.1 -1.1 -0.2 -2.2 -0.6 -2.5 -1 -0.3 -0.3 -1.4 -1.1 -2.5 -1.7 -1.4 -0.8 -2.1 -2.4 -2.3 -5.4 l-0.3 -4.3 -2 3.1 c-1.6 2.7 -2.5 3.2 -5.9 3.2 -2.9 0 -4 -0.4 -4 -1.5 0 -1.1 -1.1 -1.5 -4 -1.5 l-4 0 0 -7 c0 -5.4 -0.3 -7 -1.4 -7 -1.9 0 -4.8 6.1 -10.5 22.5 -1.8 4.9 -1.9 5 -6.2 5.3 -2.4 0.2 -6.6 -0.3 -9.4 -1.2 -9.1 -2.7 -17.4 -3.7 -38.8 -4.6 -21.6 -1 -34.5 -2.2 -40.7 -4 -4.8 -1.4 -6 -1.3 -6 0.6 0 1.3 -1.1 1.5 -7 1.2 l-7 -0.3 0.6 6.3 c0.6 5.3 0.4 6.2 -1 6.2 -1.1 0 -1.6 0.9 -1.6 3 0 2.7 -0.3 3 -3.3 3 -1.8 0 -3.9 -0.6 -4.5 -1.2 -0.7 -0.7 -0.6 0.1 0.3 1.9 1 2.1 1.5 5.1 1.3 8.5 l-0.3 5.3 -4.5 0.9 c-2.5 0.5 -4.7 1 -4.9 1.2 -0.2 0.2 0.6 1.9 1.8 3.9 2.8 4.7 2.8 10.1 0.1 11 -3.5 1.1 -7 6.8 -7 11.4 0 4.9 4.4 15.3 9.1 21.4 3.3 4.3 8.1 9.7 8.5 9.7 0.2 0 -0.8 -3.1 -2.1 -7z m172.5 -26.7 c0 -6.5 -2.3 -6.5 -13.3 0.1 -5.1 3 -11.1 6.2 -13.5 7.2 -2.4 0.9 -4.1 1.8 -3.9 2.1 0.2 0.2 1.7 -0.2 3.3 -0.8 11.2 -4.4 19.4 -6.9 22.3 -6.9 l3.4 0 -0.6 6.3 -0.5 6.2 1.4 -5 c0.7 -2.7 1.4 -6.9 1.4 -9.2z m-68 -22.3 c0 -1.1 -0.9 -2.4 -2 -3 -1.6 -0.9 -2 -0.8 -2 0.5 0 2.4 2 5.6 3.1 5 0.5 -0.4 0.9 -1.5 0.9 -2.5z m12 -53.1 c3.7 -9.3 8.3 -18 12.1 -22.7 1.4 -1.8 1.6 -2.9 0.8 -4.8 -0.5 -1.4 -0.9 -3.9 -0.9 -5.5 0 -2.5 -0.4 -2.9 -3 -2.9 -1.6 0 -4 -0.5 -5.3 -1.1 -1.7 -0.8 -3.8 -0.7 -7.8 0.1 -3 0.7 -7.4 1.3 -9.9 1.4 -4.5 0.1 -4.5 0.1 -4.8 -3.5 -0.3 -3.4 0 -3.8 4.1 -5.8 3.5 -1.7 6.2 -2.1 14 -2.1 12.3 0 14.7 1 14.7 6.2 0 3.6 0.2 3.8 3 3.8 3.4 0 3.2 0.6 3.4 -13 l0.1 -8.5 7 0 7 0 3.2 -9.5 c3.1 -9 4.2 -17.6 2.7 -21.4 -0.3 -0.9 -1.8 -1.6 -3.3 -1.6 -1.4 0 -4.4 -1.1 -6.6 -2.5 -8.6 -5.2 -14.8 -6.6 -29.7 -6.6 -13.9 0.1 -41.1 7.2 -52.5 13.8 -2.7 1.6 -5.4 2.3 -7.5 2.1 -3.1 -0.3 -3.3 -0.6 -3.6 -4.5 -0.3 -4 -0.1 -4.3 4 -6.7 2.4 -1.3 7.5 -3.6 11.3 -5.1 28.9 -10.8 65.4 -12.6 80.3 -3.9 4.8 2.8 4.8 2.7 -0.9 -5.6 -4.3 -6.4 -14 -16 -18.7 -18.4 -9.9 -5.1 -30 -10.4 -39.9 -10.5 -3.8 -0.1 -4.2 0.1 -4.5 2.6 -0.3 3.1 -2.6 4 -9.6 4.2 -2.9 0.1 -4.4 -0.4 -4.8 -1.4 -1 -2.5 -2.4 -1.7 -2.4 1.3 0 3.3 -3.1 5.2 -8.5 5.2 -2.3 0 -3.5 0.5 -3.5 1.3 0 1.6 -5.5 4.5 -12 6.3 -1.4 0.4 -2.7 1 -3 1.4 -0.3 0.4 -2.9 2 -5.9 3.5 -5.2 2.6 -23.4 15.6 -24.6 17.6 -0.4 0.5 -2.1 0.9 -4 0.9 -3.5 0 -4.5 1.3 -4.5 5.8 0 1.4 -2 5.5 -4.5 9.1 -6.1 9.1 -7.9 16.6 -7.2 29.5 0.4 5.4 0.8 10 1 10.2 0.1 0.2 2.1 0.6 4.3 1 l4 0.6 2.2 -5.7 c4.5 -11.7 19 -27.5 25.3 -27.5 2.4 0 2.9 -0.4 2.9 -2.4 0 -3.5 7.2 -8.6 12.2 -8.6 3.8 0 3.8 0 3.8 4.1 0 3.5 -0.6 4.8 -3.9 8 -2.1 2.2 -4.8 3.9 -6 3.9 -1.1 0 -2.1 0.6 -2.1 1.3 0 0.6 -2.5 3.4 -5.6 6 -7.2 6.4 -14.2 15.7 -17.9 24 -2.8 6.3 -3.1 6.7 -6.2 6.7 l-3.3 0 0 6.4 c0 6 0.3 6.8 4 11.5 3.3 4.2 5.7 5.8 15.3 10.5 11.3 5.5 16.6 6.9 30.6 8.2 l7.3 0.7 -0.7 -9.5 c-0.6 -8.2 -0.5 -9.9 1 -12.2 1.5 -2.3 2.4 -2.7 5.9 -2.4 3.8 0.3 4.1 0.5 4.4 3.5 0.2 1.8 -0.4 4.3 -1.2 5.5 -5 7.2 3.1 15.8 14.9 15.8 7 0 24 1.9 26.8 2.9 1.4 0.6 2.3 0.5 2.6 -0.3 0.2 -0.6 2 -5.4 4.1 -10.7z m-122.8 4.4 c3.3 -3.2 3.5 -4.3 0.8 -4.3 -3 0 -4.3 -6.6 -3.8 -19.2 0.3 -6 0.1 -10.8 -0.4 -10.8 -1.7 0 -6.1 5.5 -8.5 10.6 -2.1 4.6 -2.2 5.8 -1.3 9.8 1.6 7.2 4 12.5 6.8 14.6 3.1 2.5 3 2.5 6.4 -0.7z m167 -20.3 c2.4 -6.2 2.9 -12.8 1.3 -16.2 -3.8 -8.1 -5.7 -10.4 -10.8 -12.9 l-3.9 -2 0.6 2.8 c1.4 6.7 2.6 16.1 2.6 20.1 0 3.5 -0.3 4.2 -2 4.2 -1.1 0 -2 0.3 -2 0.7 0 1.4 4.4 5.3 6.1 5.3 0.9 0 2.2 0.7 2.9 1.5 1.6 1.9 3.7 0.4 5.2 -3.5z m-196.4 -110.7 c-0.7 -1.6 -1.5 -3.2 -2 -3.7 -0.4 -0.6 -0.8 -2.5 -0.8 -4.3 0 -3.2 0.2 -3.3 3.8 -3.3 3.4 0 4.1 0.5 6.6 4.4 2.7 4.3 2.8 4.4 5.6 2.9 3.6 -1.7 12.8 -3.3 19.9 -3.3 3.3 0 9.1 1.2 14.9 3 6.6 2.2 9.8 2.8 10.6 2 0.7 -0.7 0.4 -1 -1.1 -1 -1.2 0 -5.9 -2.3 -10.4 -5.1 -4.5 -2.8 -12.3 -6.5 -17.3 -8.3 -7.9 -2.7 -10.4 -3.1 -19.1 -3 -11 0 -18.7 2.5 -19.9 6.2 -0.8 2.5 3.9 12.7 6.8 14.7 3 2.2 3.7 1.8 2.4 -1.2z m80.1 -15.4 c-0.5 -1 -0.9 -4.7 -0.9 -8.3 0 -5.6 -0.3 -6.6 -1.7 -6.6 -2.2 0 -4.3 -5.1 -7.7 -18.5 -5 -19.9 -10.7 -31.6 -19.1 -39.3 -3.1 -2.9 -6.1 -5.2 -6.6 -5.2 -2.3 0 -11 6.4 -11.5 8.6 -0.7 2.8 2.8 8.8 10 17.2 6.8 8 19.6 25.1 19.6 26.4 0 0.6 1.7 5 3.9 9.8 2.3 5.1 4.2 11.2 4.6 14.8 l0.7 6 4.8 -1.6 c4.2 -1.3 4.7 -1.8 3.9 -3.3z m12.8 -2.3 c0.2 -0.1 1.2 -3.8 2.3 -8.2 3.5 -13.7 8.8 -23.3 17.7 -31.9 l7.7 -7.5 -5.6 0 c-4 0 -6.2 -0.5 -8.1 -2 -1.4 -1.1 -2.7 -2 -3 -2 -0.9 0 -7.2 16.4 -10.4 27.3 -3.1 10.5 -6.3 22.8 -6.3 24.6 0 0.9 0.8 1.1 2.7 0.6 1.6 -0.4 2.9 -0.8 3 -0.9z m-49 -8.9 c-5.7 -6.9 -10.4 -15.3 -12.3 -21.6 -2.1 -7.1 -5.7 -11.1 -10 -11.1 -4.1 0 -8.9 2.3 -10.3 4.8 -1.2 2.2 2.1 8.2 10.1 18.6 5 6.4 5.8 7 10.8 8.2 3 0.7 7.8 2.4 10.5 3.8 2.8 1.4 5.1 2.5 5.3 2.5 0.1 0.1 -1.7 -2.3 -4.1 -5.2z m41.6 -24.7 c4.7 -15.9 6.5 -23.5 6.9 -29 0.3 -5 0.1 -5.5 -2.2 -6.7 -2.8 -1.4 -7.9 -1.7 -9.8 -0.4 -1.8 1.1 -4.2 9.6 -4.2 15 0 2.5 0.8 7.5 1.9 11.1 1 3.6 2.1 9.6 2.5 13.4 0.5 3.7 1.1 6.4 1.6 6 0.4 -0.5 1.9 -4.7 3.3 -9.4z"/>
  <path d="M122 322.2 c-4.9 -2.4 -7 -7.1 -7 -15.7 0 -10.2 0.6 -11.5 4.6 -11.5 3 0 3.3 -0.3 3.6 -3.2 l0.3 -3.3 8.3 -0.3 c8 -0.3 8.4 -0.2 11.1 2.6 3.5 3.4 5.1 8.7 5.1 16.5 0 6.6 -1.6 10.3 -6 14.1 -2.7 2.2 -4.1 2.6 -9.8 2.6 -4.4 0 -7.9 -0.6 -10.2 -1.8z m4.7 -24.6 c-0.4 -0.9 -1.3 -1.6 -2.2 -1.6 -1.8 0 -2 4.1 -0.3 5.8 1 1 1.5 0.9 2.2 -0.7 0.5 -1.1 0.6 -2.7 0.3 -3.5z"/>
  <path d="M256.5 268 c-0.3 -0.5 -2.4 -1.5 -4.5 -2.1 -3.7 -1.1 -4 -1.5 -4 -5 0 -2.9 0.6 -4.3 3.1 -6.3 2.6 -2.2 4 -2.6 9.8 -2.6 8.6 0 10.1 1.4 10.1 9.3 0 4.5 -0.4 5.8 -1.9 6.7 -2.5 1.3 -11.8 1.3 -12.6 0z"/>
  <path d="M246.8 245.3 c-3.7 -0.4 -3.8 -0.5 -3.8 -4.8 0 -3.2 0.7 -5.1 2.6 -7.4 2.3 -2.8 3.1 -3.1 8.3 -3.1 4.8 0 6.1 0.4 8 2.4 1.8 1.9 2.2 3.3 1.9 7.7 l-0.3 5.4 -6.5 0.1 c-3.6 0.1 -8.2 -0.1 -10.2 -0.3z"/>
 </g>
 <g fill="#ffffff">
  <path d="M76.5 384.5 c-8 -3.3 -21.5 -12.6 -26.6 -18.3 -6.3 -7 -17.5 -24.4 -19.8 -30.7 -3 -8.1 -2.8 -19.1 0.4 -27 2.2 -5.3 2.4 -6.9 1.9 -13.6 -0.6 -6.9 -0.4 -8.2 2 -13.2 1.4 -3.1 2.6 -6.7 2.6 -8.1 0 -4.9 -2.3 -13.1 -4.6 -16.6 -1.3 -1.9 -3.6 -7 -5 -11.3 -2.2 -6.6 -2.5 -9.1 -2.2 -17.1 0.3 -8.8 0.6 -9.9 4.8 -18.1 4.3 -8.6 4.4 -9.1 5.1 -21.4 0.9 -16.3 3 -27.1 7 -36.1 4.4 -9.7 3.9 -10.3 -7.7 -11 -8.1 -0.5 -9.5 -0.9 -15.1 -4.3 -7.5 -4.6 -11.2 -8.9 -16 -18.4 -3.4 -6.8 -3.5 -7.5 -3.2 -16 0.4 -7.9 0.8 -9.6 3.4 -13.9 2.1 -3.4 4.7 -5.9 8.5 -8.1 7.7 -4.4 9.3 -6.1 8.5 -8.6 -1.8 -5.8 -1.7 -13.4 0.3 -17.9 2.4 -5.5 8.1 -12 13 -14.9 4.7 -2.8 6.2 -4.7 6.2 -7.6 0 -4.1 5.1 -15.1 9.2 -19.7 2.5 -3 6.6 -5.9 11.6 -8.3 6.8 -3.4 8.4 -3.8 15.2 -3.8 7 0 8.4 0.4 15.3 3.9 l7.7 4 4.8 -1.7 c11.1 -4 28.8 -1.2 37 5.9 2.2 1.9 6.7 4.2 10.1 5.3 16.5 5.1 26 16.1 26.1 30.1 0 8.4 -3.1 15.1 -10.5 22.9 -8.4 8.9 -7.6 10.2 7.1 12 10.3 1.3 23 5.3 35.2 11.2 15.5 7.5 30.2 25.5 36.9 45.4 2.5 7.2 2.8 9.4 2.7 22 0 10.1 -0.4 15.7 -1.7 20.2 l-1.7 6.1 3.9 6.9 c2.2 3.7 4.9 10.1 6.1 14.1 2.1 7 2.5 7.5 6.4 9.1 9.2 4 14.4 10.8 15.6 20.5 0.5 4.3 1.7 7.7 3.6 10.5 3.3 5 4.3 13.7 2.4 19.5 -0.6 2 -3.4 5.9 -6.1 8.6 -2.7 2.7 -4.9 5.5 -4.9 6.3 0 0.7 1.5 3.4 3.4 5.8 4.2 5.4 9.9 20.8 12.7 34.3 2.9 13.9 2.4 28.1 -1.1 35.1 -4.5 8.7 -14.5 11.8 -23.6 7.5 -2.3 -1.2 -5 -3.2 -5.8 -4.5 -2.1 -3.2 -5.1 -3.2 -7.2 0 -0.8 1.3 -3.6 3.4 -6.1 4.6 -8.6 4.2 -18.9 0.4 -23.3 -8.6 -3.1 -6.3 -5.4 -7.2 -13.2 -5.2 -9.2 2.3 -10.9 2.6 -22.6 4.3 -15.4 2.1 -48.4 2.9 -61.9 1.5 -15.9 -1.6 -18.6 -0.1 -20.3 11.8 -1.1 7.8 -4 12.4 -9.4 15 -5.5 2.7 -9.7 2.6 -17.1 -0.4z m7 -22.7 c-1.8 -5.1 -3.8 -10.6 -4.5 -12.3 -0.7 -1.6 -1.6 -4.3 -2 -5.8 -0.9 -2.8 -0.9 -2.7 3.4 1 2.4 2.1 6.2 4.9 8.5 6.2 l4.3 2.3 -0.8 -4.7 c-0.4 -2.7 -1.3 -6 -2 -7.4 -1.8 -3.4 -1.8 -5.5 0.1 -4.7 3.6 1.3 23.1 4.5 34.9 5.7 13.8 1.3 39.1 0.8 53.1 -1.1 17.9 -2.3 24.8 -3.9 42.9 -9.5 8.4 -2.7 9 -2.7 10.2 -1.1 0.7 1 1.6 4.8 1.9 8.4 0.8 8.4 1.8 12.5 3 12.9 1.7 0.5 8.2 -14.8 9.5 -22.2 1.4 -7.8 1.1 -11.6 -0.7 -12.3 -0.9 -0.2 -1.3 0.8 -1.3 3.5 0 8.4 -5.1 26.3 -6.3 22.3 -0.3 -0.8 -1.4 -4.8 -2.5 -8.9 -1.9 -7 -2 -7.6 -0.4 -8.7 2.3 -1.7 1 -2.7 -1.9 -1.5 -8.4 3.5 -25.8 9.2 -33.4 10.9 -15.5 3.6 -39.5 5.5 -62.5 4.9 -17.9 -0.5 -22.3 -0.9 -35 -3.6 -20.8 -4.5 -21.4 -4.6 -20.6 -3.3 0.4 0.7 1.3 1.2 2.1 1.2 0.8 0 2 2.3 2.9 5.5 0.9 3 1.9 6.2 2.3 7.2 1.1 2.8 -9.5 -6.5 -13.3 -11.7 -5.5 -7.4 -4.9 -8 4.9 -5.8 17.8 4 21.6 4.7 31.2 5.9 12.7 1.6 40.2 1.7 52.5 0.1 26.4 -3.5 43.5 -9.2 62.9 -21.1 4.6 -2.8 9 -5.1 9.8 -5.1 3.2 0 8 3 10.6 6.6 1.6 2.2 5.9 8.9 9.7 14.9 3.8 6.1 8.4 13.3 10.2 16.2 1.8 2.9 3.8 5.2 4.4 5.3 2.9 0.1 3.1 -13.2 0.5 -26 -5.2 -24.5 -12.5 -35 -24.5 -35 l-4.6 0 3 -4.7 c1.7 -2.6 3 -5.5 3 -6.4 0 -1.9 -3.6 -3.4 -10.7 -4.5 -4.6 -0.7 -5.2 -1.4 -2.7 -3.5 2 -1.6 7.4 -9.5 7.4 -10.7 0 -1.3 -7.4 -4.5 -9.5 -4 -3.1 0.5 -2.8 2.5 0.5 3.1 4.3 0.9 3.9 3.4 -1.6 9.1 -2.5 2.6 -4.3 5.3 -4.1 6 0.5 1.4 7.2 3.6 10.8 3.6 5.2 0 5.4 1.3 1.6 8.3 -1.9 3.6 -3.3 6.8 -3 7.1 0.4 0.3 3.5 0.6 7 0.6 3.7 0 7.6 0.6 9.2 1.5 3.3 1.7 8.4 8.9 10.4 14.9 4.1 11.8 7.7 35.9 4.6 30.1 -5.2 -9.5 -17.3 -26.6 -21.9 -30.9 -6.6 -6.2 -10 -6.7 -18.1 -2.6 -3.5 1.7 -7.1 3.7 -7.9 4.5 -0.8 0.7 -4.6 2.8 -8.5 4.8 -20.1 10 -28.5 12.3 -55.6 15.3 -13.4 1.5 -17.5 1.6 -31.4 0.6 -18 -1.4 -33.9 -4.4 -49.9 -9.6 -12.3 -4.1 -12.6 -4.1 -12.6 -2.1 0 0.8 0.4 1.5 0.9 1.5 2 0 3.9 3.1 4.6 7.6 0.8 5.4 6.4 21.7 9.9 29 1.3 2.7 2.2 5.1 2 5.3 -1.2 1.3 -13.7 -9.9 -19.9 -17.9 -11.7 -15.2 -14.4 -29.7 -7.1 -37.4 1.7 -1.8 3.7 -3.5 4.4 -3.7 0.9 -0.3 0.2 -2.4 -2.3 -7.2 -1.9 -3.7 -3.5 -6.9 -3.5 -7.2 0 -0.3 1.7 -0.5 3.8 -0.6 9.7 -0.3 11 -2.8 6.4 -11.7 -4.2 -8.1 -8.6 -23 -7.3 -24.6 0.8 -0.9 0.3 -1.8 -1.8 -3.4 -3.5 -2.6 -6.9 -11 -7.8 -19.1 -1.1 -11 6.7 -23 15 -23.1 l2.9 0 -0.7 11.3 c-0.5 7.8 -0.3 12.6 0.5 15.7 0.7 2.5 1.5 3.8 1.7 3 1.3 -4.4 1.3 -4.4 4.2 -1.6 3.5 3.4 3.2 4.8 -2.4 11.3 l-4.4 5 1 6.4 c1.2 7.5 3.1 11.9 6 13.7 2 1.3 2.1 1.2 1.4 -2 -0.4 -1.8 -1.4 -4.5 -2.1 -6 -2 -3.9 -2.9 -11.4 -1.5 -12.2 0.7 -0.5 1.1 0.7 1.1 3.6 0 4.7 2.6 10.9 4.9 11.6 0.9 0.3 1.2 0 0.9 -1 -0.4 -0.8 -0.9 -4.1 -1.3 -7.3 -0.8 -5.8 -0.8 -5.8 1.6 -5.2 1.3 0.4 4.8 1 7.8 1.4 l5.4 0.6 -0.6 -3.6 -0.6 -3.7 3.7 1.9 c8.2 4.1 20.4 5.8 49.9 7.1 21.5 0.9 29.7 1.9 38.9 4.7 2.9 0.8 5.7 1.4 6.4 1.1 0.8 -0.2 2.1 -2.6 3.1 -5.4 6.7 -19.2 7.9 -21.3 13 -23.6 5.4 -2.4 5.9 -1.6 5.2 7.9 -0.3 4 -0.3 7.3 0 7.3 0.4 0 2.5 -0.7 4.7 -1.6 4.7 -1.9 5.7 -1.5 3.9 1.5 -1.9 2.9 -0.1 4 2.2 1.3 2.2 -2.8 3.7 -7.8 4.1 -14.1 0.2 -4.5 -0.3 -5.2 -4.4 -6.5 -2.2 -0.6 -8.7 -9.5 -8.8 -11.8 0 -2 2 -6.8 2.9 -6.8 0.4 0 1.5 1.6 2.5 3.5 1.1 1.9 2.1 3.3 2.3 3.1 0.6 -0.6 -1.6 -14.9 -3.4 -22.4 -0.9 -3.4 -1.3 -6.5 -1 -6.8 0.8 -0.8 15 6 16.7 8 1.8 2.3 3.5 5.2 5.6 9.6 2.7 5.7 0.6 20.6 -3.5 25.4 -0.9 1 -1.7 2.8 -1.7 4 -0.1 1.1 -0.7 5.6 -1.5 9.8 -1 6.4 -1 8 0.1 9.3 1.2 1.5 1.5 0.9 2.7 -4.7 1.8 -8.6 6.4 -24.7 8 -27.8 1.9 -3.7 1.6 -12.9 -0.5 -17 -1.1 -1.9 -2.6 -4.8 -3.5 -6.5 -0.9 -1.6 -3.2 -4.4 -5.2 -6 l-3.6 -3.1 2.5 -4.4 c3 -5.5 5.6 -17.7 5.6 -26.3 0 -8.7 -3.6 -20.4 -9 -29.7 -5.3 -9.1 -15.8 -19.8 -22 -22.4 -2.5 -1 -5.4 -2.3 -6.4 -2.8 -4.8 -2.5 -16.6 -5.9 -24 -6.8 -10.9 -1.4 -18.3 -1.3 -29.6 0.4 -5.2 0.8 -9.6 1.4 -9.7 1.3 -0.5 -0.5 6.6 -19.6 9.1 -24.5 1.5 -2.9 6 -8.8 10 -13 8.5 -8.9 9.6 -10.8 9.6 -15.8 0 -5.3 -6.5 -11.6 -14.3 -13.9 -7.9 -2.3 -10.1 -1.5 -13.1 4.2 l-2.4 4.8 0.5 -7.2 c0.7 -8.7 -0.6 -11.4 -6.5 -13.1 -6 -1.8 -14.6 -1.5 -17.1 0.6 -1.3 1 -2.9 4.7 -4.3 9.6 l-2.1 7.9 -2 -3.9 c-2.5 -5.1 -14.3 -17.2 -18.4 -19 -4.5 -2 -6.8 -1.8 -12.7 1 -6 2.9 -8.8 5.7 -11 11 -1.6 3.8 -1.5 4 1.3 10 1.8 3.7 6.9 10.7 13 17.7 8 9.2 17.1 21.6 17.1 23.4 0 0.1 -1.7 -0.3 -3.7 -1.1 -2.1 -0.7 -4.6 -1.3 -5.5 -1.4 -1.9 0 -6.4 -7.1 -8.2 -12.8 -1.8 -5.8 -4.2 -9.7 -7.2 -11.7 -3.5 -2.2 -14 -3.1 -18.7 -1.6 -4.2 1.4 -10.7 8.2 -10.7 11.1 0 2.8 4.3 11 9 17.3 2.2 2.8 4 5.4 4 5.7 -0.1 1.1 -7.8 4 -10.7 4 -4.9 0 -16.3 3.9 -18.9 6.5 -7.9 7.9 3.7 29.4 15.8 29.5 3.6 0 11.6 -3.3 13 -5.4 0.4 -0.6 1.4 -0.4 2.6 0.7 3.3 3 7.7 2.2 12.2 -2.4 3.1 -3.1 4.5 -3.9 6.2 -3.4 1.3 0.3 4.1 1 6.3 1.6 2.2 0.6 6 2 8.5 3.1 3.9 1.8 4.2 2.1 2.5 2.8 -2.4 0.9 -13.2 11.8 -17.4 17.5 -7.9 10.8 -13.4 22.8 -15.2 33 -1.8 10.2 -1.8 28 -0.1 29.7 2.1 2.1 4.5 -1.8 3.5 -5.7 -1.2 -4.4 -0.4 -19.1 1.3 -25.9 0.8 -3.3 3.1 -8.5 5.2 -11.5 6.3 -9.3 6.3 -10 0.3 -4.7 -2.3 2 -2.3 2 -1.3 0.1 3.9 -7.5 20.4 -26.4 26.9 -30.7 8.7 -5.7 23.2 -13.8 28.3 -15.7 3 -1.1 8.9 -2.7 13 -3.5 4.1 -0.9 10.6 -2.3 14.5 -3.1 13.2 -2.8 28.6 -1.3 44.7 4.4 12 4.2 14.3 5.5 21.2 12 17.5 16.6 22.9 36.5 15.7 58.1 -4.2 12.8 -3.7 12.3 -10 10.9 -7.9 -1.7 -8.4 -1.2 -7.6 7.5 0.6 5.9 0.3 8.7 -1.1 13.1 -1.4 4.8 -1.9 5.4 -2.7 3.8 -2.3 -4 -5.2 -3.8 -3.7 0.3 1.5 3.9 1.2 7.9 -0.9 10.5 -4.8 6.2 -11.8 20.6 -16.4 34.2 -0.8 2.1 -2.4 2.1 -6.9 0.3 -3.7 -1.6 -19.6 -3.6 -28.3 -3.6 -6.9 0 -12.8 -2.8 -15.1 -7.1 -1.1 -2.2 -1.9 -2.8 -2.6 -2.1 -0.8 0.8 -0.5 2.2 0.8 4.9 l1.9 3.8 -11.8 -0.7 c-17.4 -1.1 -22.9 -2.4 -35.4 -8.4 -9.6 -4.7 -12 -6.3 -15.3 -10.5 -4.6 -5.9 -4.3 -4.6 -4.4 -17.4 l-0.1 -9.9 -4.4 -0.9 c-5.6 -1.1 -9.2 0.4 -13.6 5.7 -5 6.2 -7.5 12.2 -7.5 18.7 0 6.8 3.1 16.2 6.9 20.9 1.8 2.3 3 5.2 3.5 8.7 0.9 7.1 4 15.7 7.7 21.5 1.8 2.7 3 5 2.8 5.2 -0.2 0.2 -3.3 0.7 -6.9 1.2 -5.7 0.8 -6.5 1.2 -6.8 3.2 -0.2 1.2 1 4.7 2.6 7.7 l3 5.4 -2.5 1.6 c-3.6 2.4 -7.3 11 -7.3 17 0 5.8 2.1 10.8 8.1 19.7 6.8 10.1 11.7 15.6 18.4 20.3 5.4 3.9 13.8 8.4 15.6 8.5 0.4 0 -0.8 -4.2 -2.6 -9.2z m75.3 -36 c1.5 -1.5 1.6 -6.3 0.2 -8.9 -1.2 -2.1 -5 -2.5 -6.8 -0.7 -0.7 0.7 -1.2 2.8 -1.2 4.8 0 4.1 1.4 6 4.5 6 1.2 0 2.6 -0.5 3.3 -1.2z m-19.8 -7.4 c3.7 -3.2 6 -7.3 6 -11.1 0 -4.9 -2.1 -10.6 -5 -13.5 -2.4 -2.3 -3.7 -2.8 -7.9 -2.8 -2.7 0 -5.3 0.5 -5.6 1 -0.3 0.6 0.1 1 0.9 1 3.4 0 4.6 6.2 2.1 11 -2.6 5.1 -9.4 2.7 -9.6 -3.3 0 -2.7 -0.2 -2.9 -0.9 -1.2 -1.5 3.4 -1.1 10.8 0.8 14.5 3.4 6.9 13.4 9.2 19.2 4.4z m42 -1.9 c6.8 -3.5 9.1 -10.1 6.6 -18.9 -2.1 -7 -5.2 -9.6 -11.5 -9.6 -4.6 0 -4.6 0.1 -2.4 1.8 3.1 2.4 4 7.5 1.9 10.7 -3.4 5.2 -9.5 1.8 -9.7 -5.5 l-0.1 -3.5 -1.5 3.5 c-2.3 5.2 -1.4 14.2 1.8 17.6 2.6 2.8 7.3 5.3 10.2 5.4 1 0 3.1 -0.7 4.7 -1.5z m85.1 -51.5 c2.4 -1.3 2.5 -5.7 0.2 -8.2 -2.5 -2.7 -8.5 -2.4 -12.2 0.8 -1.7 1.4 -3.1 2.9 -3.1 3.3 0 0.4 1.8 1.3 4 2 2.1 0.6 4.2 1.6 4.5 2.1 0.8 1.3 4.1 1.3 6.6 0z m-5.3 -24.8 c0.5 -3.2 -3.4 -7.2 -6.9 -7.2 -1.8 0 -3.6 1 -5.3 3.1 -3.3 3.9 -3.4 6.3 -0.3 5.6 1.2 -0.4 2.9 -0.2 3.7 0.4 0.8 0.5 3.1 0.8 5 0.7 2.8 -0.2 3.6 -0.8 3.8 -2.6z m-128.8 -3.5 c0 -1.2 0.7 -3.2 1.5 -4.4 2.2 -3.2 -0.3 -4.3 -2.6 -1.2 -2.6 3.4 -2.4 7.9 0.3 7.9 0.4 0 0.8 -1 0.8 -2.3z m-47.4 -46.8 c2.4 -3.1 6.9 -8 10.1 -10.8 5.7 -5.1 6.4 -6.9 2.1 -5.7 -8.8 2.4 -27 28.6 -24.4 35.2 0.6 1.5 1.5 0.4 4.2 -5.5 2 -4.1 5.5 -10 8 -13.2z m93.9 12.9 c4.9 -1 11 -0.7 15.3 0.7 1.6 0.5 2.2 0.3 2.2 -0.7 0 -4.1 -15.3 -5.3 -22.7 -1.7 -2.4 1.1 -4 2.5 -3.7 3.1 0.3 0.5 1.3 0.6 2.3 0.2 0.9 -0.3 3.8 -1.1 6.6 -1.6z m-69.1 -35.9 c2.6 -3.1 3.3 -4.9 1.8 -4.9 -1.5 0 -9.2 6.2 -9.2 7.4 0 3.5 3.3 2.4 7.4 -2.5z m32.1 -18.2 c11.2 -4 31.2 -8.5 40.5 -9.1 9.4 -0.6 26.3 1.4 30.2 3.5 1.4 0.8 4.5 2.5 6.9 3.8 l4.4 2.3 -2.5 -2.7 c-10 -10.9 -33.7 -13.4 -61.5 -6.6 -17.3 4.3 -34.5 11.2 -34.5 14 0 2 1.7 1.9 5.4 -0.3 2.3 -1.3 7.3 -3.5 11.1 -4.9z m-51.4 -16.4 c3 -2.2 8 -5.3 11 -6.8 2.9 -1.5 5.6 -3.1 5.9 -3.5 0.3 -0.4 1.6 -1 3 -1.4 5.6 -1.6 12 -4.7 12 -5.8 0 -1.9 -3.2 -1.9 -7.3 0 -2.3 1 -5.3 2.3 -6.7 2.7 -1.4 0.4 -7.8 4.4 -14.3 8.9 -8.1 5.6 -13 9.7 -15.5 13.1 l-3.7 5 5 -4 c2.8 -2.3 7.5 -5.9 10.6 -8.2z m41.4 -20.5 c3.5 -1.6 3.1 -2.8 -0.7 -2.8 -3.9 0 -6.3 1.3 -5.4 2.9 0.9 1.4 2.9 1.4 6.1 -0.1z m18.8 -5.5 c2 -1.2 0.2 -2.3 -3.8 -2.3 -4.3 0 -5.8 1.4 -3.8 3.4 0.7 0.6 5.9 -0.1 7.6 -1.1z"/>
  <path d="M75.8 251.6 l-5.7 -1.1 3.3 -3.6 3.3 -3.5 2.6 2.2 c2.5 2.2 4.8 7.5 3.1 7.3 -0.5 -0.1 -3.5 -0.7 -6.6 -1.3z"/>
  <path d="M209.5 241.2 c0.3 -2.7 0.2 -6 -0.5 -7.6 -1.1 -2.9 -2.9 -3.1 -8.4 -1 -1.7 0.7 -1.7 0.6 -0.1 -2.7 2.6 -5 3.6 -5.2 7.2 -1 1.8 2.1 4.6 4.4 6.3 5.1 2.8 1.2 3.1 1.6 2.8 5.3 -0.3 3.7 -0.6 4.1 -4.1 5.3 l-3.9 1.4 0.7 -4.8z"/>
  <path d="M28.4 121.1 c-5.7 -3.5 -10.2 -16.8 -7.4 -22 1.9 -3.7 9.6 -5.6 23 -5.6 11.4 0 13.3 0.3 21.6 3.1 5 1.8 12.8 5.5 17.3 8.3 4.5 2.8 8.4 5.1 8.7 5.1 0.2 0 0.4 -0.8 0.4 -1.8 0 -1 -1.3 -2.8 -2.9 -4 -5 -3.7 -21.3 -11.3 -27.1 -12.6 -5.1 -1.2 -5.8 -1.7 -10.8 -8.2 -2.9 -3.8 -6.7 -9.1 -8.3 -11.9 -6.3 -10.9 -2 -17.5 11.5 -17.5 5.9 0 6.6 0.2 9 3 1.4 1.7 3.2 5.4 4.1 8.2 2.6 8.7 7.9 16.9 20.6 31.4 1 1.1 3.5 3.4 5.7 5.2 2.6 2.1 4.2 4.2 4.4 6 0.6 5.4 2.3 2 2 -4.2 -0.2 -4.9 -1.2 -8.5 -4.2 -15.4 -2.2 -4.9 -4 -9.4 -4 -10 0 -1.4 -11 -16.2 -17.9 -24.1 -5.5 -6.3 -8.3 -10.3 -11.7 -16.8 -1.5 -2.7 -1.6 -3.8 -0.6 -7.2 1 -3.1 2.3 -4.6 6.2 -7 7.7 -4.7 11.5 -4.3 18.4 2 8.7 7.9 15.5 22.5 20.2 43.1 1.5 6.5 5.3 16.7 5.4 14.2 0 -2.9 -3.2 -21.5 -4.5 -25.8 -1.9 -6.4 -1.9 -18.8 0 -25.4 1.2 -4.1 2.1 -5.3 4.1 -5.8 3.8 -1 14 0.1 15.9 1.6 3.4 2.8 0.1 21.3 -8.6 48.5 -3.5 11 -4.5 17.1 -3.4 21.3 0.7 2.3 1 1.7 2.1 -4.2 2.9 -14.9 14.7 -49.5 17.6 -51.2 0.4 -0.3 2.9 1.1 5.4 3 3.4 2.6 5.7 3.6 8.3 3.6 l3.6 -0.1 -4 -2 c-4.6 -2.3 -10.7 -7.8 -9.9 -9.1 0.9 -1.5 9.4 -0.9 12.2 0.9 5.2 3.3 6.2 4.9 6.2 10.4 0 5.1 -0.1 5.2 -8 13 -10.2 10.1 -15.8 20.9 -19.4 37.9 -0.5 2.2 -1.8 3 -9.3 5.4 -8.7 2.8 -15.3 5.5 -16.3 6.6 -0.3 0.3 -3.4 2.3 -6.9 4.4 l-6.3 3.9 -11.7 -3.8 c-11.2 -3.7 -11.8 -3.8 -19.2 -2.8 -7.5 1 -10.7 2.1 -16.1 5.7 l-2.8 1.8 -1 -2.8 c-1.3 -3.4 -5.2 -9.4 -6.2 -9.4 -0.3 0 0.2 1.7 1.2 3.8 1 2 2.1 5.4 2.5 7.5 0.7 3.7 0.7 3.7 -2.6 3.7 -1.9 0 -4.8 -0.9 -6.5 -1.9z"/>
  <path d="M52 119.5 c0 -0.6 5.6 -3.5 6.7 -3.5 1.3 0.1 -4.1 4 -5.4 4 -0.7 0 -1.3 -0.2 -1.3 -0.5z"/>
  <path d="M87 89.5 c-5.4 -5.5 -5.4 -6.8 0 -4 3.2 1.6 7 6.1 7 8.1 0 2.4 -1.4 1.6 -7 -4.1z"/>
  <path d="M260.6 261 l-2.8 -1.8 3.2 -0.7 c3.6 -0.8 5.6 0.5 4.7 2.9 -0.8 2 -1.5 1.9 -5.1 -0.4z"/>
  <path d="M254 238.5 c-1 -1.2 -0.9 -1.6 0.3 -2.1 2 -0.7 3.7 0.3 3.7 2.2 0 1.8 -2.4 1.8 -4 -0.1z"/>
 </g>
</svg>
